G04 EAGLE Gerber RS-274X export*
G75*
%MOMM*%
%FSLAX34Y34*%
%LPD*%
%INTop Copper*%
%IPPOS*%
%AMOC8*
5,1,8,0,0,1.08239X$1,22.5*%
G01*
%ADD10R,1.200000X3.400000*%
%ADD11R,1.800000X1.800000*%
%ADD12C,0.300000*%
%ADD13R,1.600000X1.800000*%
%ADD14R,1.600000X3.000000*%
%ADD15R,5.000000X5.000000*%
%ADD16R,7.000000X30.000000*%
%ADD17C,0.609600*%


D10*
X104000Y275000D03*
X146000Y275000D03*
X424000Y136000D03*
X466000Y136000D03*
X504000Y275000D03*
X546000Y275000D03*
X504000Y136000D03*
X546000Y136000D03*
X584000Y275000D03*
X626000Y275000D03*
X584000Y136000D03*
X626000Y136000D03*
X664000Y275000D03*
X706000Y275000D03*
X664000Y136000D03*
X706000Y136000D03*
X744000Y275000D03*
X786000Y275000D03*
X744000Y136000D03*
X786000Y136000D03*
X824000Y275000D03*
X866000Y275000D03*
X104000Y136000D03*
X146000Y136000D03*
X824000Y136000D03*
X866000Y136000D03*
X904000Y275000D03*
X946000Y275000D03*
X904000Y136000D03*
X946000Y136000D03*
X984000Y275000D03*
X1026000Y275000D03*
X984000Y136000D03*
X1026000Y136000D03*
X1064000Y275000D03*
X1106000Y275000D03*
X1064000Y136000D03*
X1106000Y136000D03*
X1144000Y275000D03*
X1186000Y275000D03*
X1144000Y136000D03*
X1186000Y136000D03*
X1224000Y275000D03*
X1266000Y275000D03*
X184000Y275000D03*
X226000Y275000D03*
X1224000Y136000D03*
X1266000Y136000D03*
X184000Y136000D03*
X226000Y136000D03*
X264000Y275000D03*
X306000Y275000D03*
X264000Y136000D03*
X306000Y136000D03*
X344000Y275000D03*
X386000Y275000D03*
X344000Y136000D03*
X386000Y136000D03*
X424000Y275000D03*
X466000Y275000D03*
D11*
X105000Y185000D03*
X105000Y227000D03*
X465000Y227000D03*
X465000Y185000D03*
X505000Y185000D03*
X505000Y227000D03*
X545000Y227000D03*
X545000Y185000D03*
X585000Y185000D03*
X585000Y227000D03*
X625000Y227000D03*
X625000Y185000D03*
X665000Y185000D03*
X665000Y227000D03*
X705000Y227000D03*
X705000Y185000D03*
X745000Y185000D03*
X745000Y227000D03*
X785000Y227000D03*
X785000Y185000D03*
X825000Y185000D03*
X825000Y227000D03*
X145000Y227000D03*
X145000Y185000D03*
X865000Y227000D03*
X865000Y185000D03*
X905000Y185000D03*
X905000Y227000D03*
X945000Y227000D03*
X945000Y185000D03*
X985000Y185000D03*
X985000Y227000D03*
X1025000Y227000D03*
X1025000Y185000D03*
X1065000Y185000D03*
X1065000Y227000D03*
X1105000Y227000D03*
X1105000Y185000D03*
X1145000Y185000D03*
X1145000Y227000D03*
X1185000Y227000D03*
X1185000Y185000D03*
X1225000Y185000D03*
X1225000Y227000D03*
X185000Y185000D03*
X185000Y227000D03*
X1265000Y227000D03*
X1265000Y185000D03*
X225000Y227000D03*
X225000Y185000D03*
X265000Y185000D03*
X265000Y227000D03*
X305000Y227000D03*
X305000Y185000D03*
X345000Y185000D03*
X345000Y227000D03*
X385000Y227000D03*
X385000Y185000D03*
X425000Y185000D03*
X425000Y227000D03*
D12*
X45270Y153500D02*
X45270Y146500D01*
X45270Y153500D02*
X52270Y153500D01*
X52270Y146500D01*
X45270Y146500D01*
X45270Y149350D02*
X52270Y149350D01*
X52270Y152200D02*
X45270Y152200D01*
X27730Y153500D02*
X27730Y146500D01*
X27730Y153500D02*
X34730Y153500D01*
X34730Y146500D01*
X27730Y146500D01*
X27730Y149350D02*
X34730Y149350D01*
X34730Y152200D02*
X27730Y152200D01*
D13*
X1260000Y83000D03*
X1232000Y83000D03*
X1232000Y44000D03*
X1260000Y44000D03*
D14*
X26000Y235000D03*
X54000Y235000D03*
X54000Y185000D03*
X26000Y185000D03*
D15*
X40000Y295000D03*
X40000Y105000D03*
D16*
X1337900Y197900D03*
D17*
X184000Y275000D02*
X146000Y275000D01*
X145000Y227000D02*
X105000Y227000D01*
X145000Y227000D02*
X145000Y274000D01*
X146000Y275000D01*
X105000Y137000D02*
X104000Y136000D01*
X105000Y137000D02*
X105000Y185000D01*
X48770Y150000D02*
X48770Y121770D01*
X40000Y113000D01*
X40000Y105000D01*
X73000Y105000D02*
X104000Y136000D01*
X73000Y105000D02*
X40000Y105000D01*
X40000Y295000D02*
X84000Y295000D01*
X104000Y275000D01*
X26000Y271000D02*
X26000Y235000D01*
X40000Y285000D02*
X40000Y295000D01*
X40000Y285000D02*
X26000Y271000D01*
X1232000Y83000D02*
X1232000Y44000D01*
X1260000Y44000D02*
X1299000Y44000D01*
X1338000Y83000D02*
X1340000Y83000D01*
X1328500Y73500D02*
X1299000Y44000D01*
X1337900Y82900D02*
X1338000Y83000D01*
X1337900Y197900D02*
X1337900Y314100D01*
X1337900Y197900D02*
X1337900Y82900D01*
X1328500Y73500D01*
X54000Y185000D02*
X54000Y235000D01*
X26000Y185000D02*
X26000Y155230D01*
X31230Y150000D01*
X145000Y185000D02*
X185000Y185000D01*
X185000Y137000D01*
X184000Y136000D01*
X146000Y136000D01*
X306000Y275000D02*
X344000Y275000D01*
X305000Y227000D02*
X265000Y227000D01*
X305000Y227000D02*
X305000Y274000D01*
X306000Y275000D01*
X265000Y185000D02*
X225000Y185000D01*
X265000Y185000D02*
X265000Y137000D01*
X264000Y136000D01*
X226000Y136000D01*
X306000Y136000D02*
X344000Y136000D01*
X344000Y184000D01*
X345000Y185000D01*
X305000Y185000D01*
X227000Y275000D02*
X226000Y275000D01*
X227000Y275000D02*
X264000Y275000D01*
X225000Y227000D02*
X185000Y227000D01*
X225000Y227000D02*
X225000Y273000D01*
X227000Y275000D01*
X466000Y275000D02*
X504000Y275000D01*
X466000Y275000D02*
X466000Y228000D01*
X465000Y227000D02*
X425000Y227000D01*
X465000Y227000D02*
X466000Y228000D01*
X425000Y185000D02*
X385000Y185000D01*
X425000Y185000D02*
X425000Y136000D01*
X425000Y130000D01*
X424000Y131000D01*
X424000Y136000D01*
X425000Y136000D02*
X386000Y136000D01*
X505000Y137000D02*
X505000Y185000D01*
X505000Y137000D02*
X504000Y136000D01*
X466000Y136000D01*
X465000Y185000D02*
X505000Y185000D01*
X424000Y275000D02*
X386000Y275000D01*
X385000Y274000D01*
X385000Y227000D01*
X345000Y227000D01*
X585000Y227000D02*
X625000Y227000D01*
X626000Y228000D02*
X626000Y275000D01*
X626000Y228000D02*
X625000Y227000D01*
X626000Y275000D02*
X664000Y275000D01*
X584000Y136000D02*
X546000Y136000D01*
X584000Y136000D02*
X584000Y184000D01*
X585000Y185000D01*
X545000Y185000D01*
X664000Y184000D02*
X664000Y136000D01*
X664000Y184000D02*
X665000Y185000D01*
X625000Y185000D01*
X626000Y136000D02*
X664000Y136000D01*
X545000Y227000D02*
X505000Y227000D01*
X546000Y275000D02*
X584000Y275000D01*
X545000Y274000D02*
X545000Y227000D01*
X545000Y274000D02*
X546000Y275000D01*
X786000Y275000D02*
X824000Y275000D01*
X786000Y228000D02*
X785000Y227000D01*
X786000Y228000D02*
X786000Y275000D01*
X785000Y227000D02*
X745000Y227000D01*
X744000Y136000D02*
X706000Y136000D01*
X744000Y136000D02*
X744000Y184000D01*
X745000Y185000D01*
X705000Y185000D01*
X824000Y184000D02*
X824000Y136000D01*
X824000Y184000D02*
X825000Y185000D01*
X785000Y185000D01*
X786000Y136000D02*
X824000Y136000D01*
X705000Y227000D02*
X665000Y227000D01*
X705000Y227000D02*
X706000Y228000D01*
X706000Y275000D01*
X744000Y275000D01*
X946000Y275000D02*
X946000Y228000D01*
X945000Y227000D01*
X905000Y227000D01*
X946000Y275000D02*
X984000Y275000D01*
X904000Y136000D02*
X866000Y136000D01*
X904000Y136000D02*
X904000Y184000D01*
X905000Y185000D01*
X865000Y185000D01*
X984000Y184000D02*
X984000Y136000D01*
X984000Y184000D02*
X985000Y185000D01*
X983000Y185000D02*
X945000Y185000D01*
X983000Y185000D02*
X984000Y184000D01*
X984000Y136000D02*
X946000Y136000D01*
X865000Y227000D02*
X825000Y227000D01*
X865000Y227000D02*
X865000Y274000D01*
X866000Y275000D01*
X904000Y275000D01*
X1106000Y275000D02*
X1106000Y228000D01*
X1105000Y227000D01*
X1065000Y227000D01*
X1106000Y275000D02*
X1144000Y275000D01*
X1064000Y184000D02*
X1064000Y136000D01*
X1064000Y184000D02*
X1065000Y185000D01*
X1025000Y185000D01*
X1026000Y136000D02*
X1064000Y136000D01*
X1105000Y185000D02*
X1145000Y185000D01*
X1145000Y137000D01*
X1144000Y136000D01*
X1106000Y136000D01*
X1025000Y227000D02*
X985000Y227000D01*
X1025000Y227000D02*
X1029000Y227000D01*
X1030000Y226000D01*
X1026000Y226000D01*
X1025000Y227000D01*
X1026000Y230000D02*
X1026000Y275000D01*
X1026000Y230000D02*
X1029000Y227000D01*
X1026000Y275000D02*
X1064000Y275000D01*
X1145000Y227000D02*
X1185000Y227000D01*
X1186000Y228000D01*
X1186000Y275000D01*
X1224000Y275000D01*
X1225000Y185000D02*
X1225000Y183000D01*
X1225000Y137000D01*
X1224000Y136000D01*
X1186000Y136000D01*
X1185000Y185000D02*
X1223000Y185000D01*
X1225000Y183000D01*
X1225000Y227000D02*
X1265000Y227000D01*
X1266000Y228000D01*
X1266000Y275000D01*
X1266000Y184000D02*
X1266000Y136000D01*
X1266000Y184000D02*
X1265000Y185000D01*
X1266000Y136000D02*
X1266000Y89000D01*
X1260000Y83000D01*
M02*
