G04 EAGLE Gerber RS-274X export*
G75*
%MOMM*%
%FSLAX34Y34*%
%LPD*%
%INSoldermask Top*%
%IPPOS*%
%AMOC8*
5,1,8,0,0,1.08239X$1,22.5*%
G01*
%ADD10C,3.203200*%
%ADD11R,1.403200X3.603200*%
%ADD12R,2.003200X2.003200*%
%ADD13C,0.505344*%
%ADD14R,1.803200X2.003200*%
%ADD15R,1.803200X3.203200*%
%ADD16R,5.203200X5.203200*%
%ADD17R,7.203200X30.203200*%


D10*
X40000Y40000D03*
X40000Y360000D03*
X1410000Y360000D03*
X1410000Y40000D03*
D11*
X104000Y275000D03*
X146000Y275000D03*
X424000Y136000D03*
X466000Y136000D03*
X504000Y275000D03*
X546000Y275000D03*
X504000Y136000D03*
X546000Y136000D03*
X584000Y275000D03*
X626000Y275000D03*
X584000Y136000D03*
X626000Y136000D03*
X664000Y275000D03*
X706000Y275000D03*
X664000Y136000D03*
X706000Y136000D03*
X744000Y275000D03*
X786000Y275000D03*
X744000Y136000D03*
X786000Y136000D03*
X824000Y275000D03*
X866000Y275000D03*
X104000Y136000D03*
X146000Y136000D03*
X824000Y136000D03*
X866000Y136000D03*
X904000Y275000D03*
X946000Y275000D03*
X904000Y136000D03*
X946000Y136000D03*
X984000Y275000D03*
X1026000Y275000D03*
X984000Y136000D03*
X1026000Y136000D03*
X1064000Y275000D03*
X1106000Y275000D03*
X1064000Y136000D03*
X1106000Y136000D03*
X1144000Y275000D03*
X1186000Y275000D03*
X1144000Y136000D03*
X1186000Y136000D03*
X1224000Y275000D03*
X1266000Y275000D03*
X184000Y275000D03*
X226000Y275000D03*
X1224000Y136000D03*
X1266000Y136000D03*
X184000Y136000D03*
X226000Y136000D03*
X264000Y275000D03*
X306000Y275000D03*
X264000Y136000D03*
X306000Y136000D03*
X344000Y275000D03*
X386000Y275000D03*
X344000Y136000D03*
X386000Y136000D03*
X424000Y275000D03*
X466000Y275000D03*
D12*
X105000Y227000D03*
X105000Y185000D03*
X463000Y185000D03*
X463000Y227000D03*
X505000Y227000D03*
X505000Y185000D03*
X548000Y185000D03*
X548000Y227000D03*
X586000Y227000D03*
X586000Y185000D03*
X624000Y185000D03*
X624000Y227000D03*
X664000Y227000D03*
X664000Y185000D03*
X706000Y185000D03*
X706000Y227000D03*
X746000Y227000D03*
X746000Y185000D03*
X786000Y185000D03*
X786000Y227000D03*
X824000Y227000D03*
X824000Y185000D03*
X145000Y185000D03*
X145000Y227000D03*
X865000Y185000D03*
X865000Y227000D03*
X903000Y227000D03*
X903000Y185000D03*
X943000Y185000D03*
X943000Y227000D03*
X985000Y227000D03*
X985000Y185000D03*
X1025000Y185000D03*
X1025000Y227000D03*
X1065000Y227000D03*
X1065000Y185000D03*
X1105000Y185000D03*
X1105000Y227000D03*
X1144000Y227000D03*
X1144000Y185000D03*
X1186000Y185000D03*
X1186000Y227000D03*
X1225000Y227000D03*
X1225000Y185000D03*
X185000Y227000D03*
X185000Y185000D03*
X1265000Y185000D03*
X1265000Y227000D03*
X225000Y185000D03*
X225000Y227000D03*
X265000Y227000D03*
X265000Y185000D03*
X304000Y185000D03*
X304000Y227000D03*
X385000Y185000D03*
X385000Y227000D03*
X423000Y227000D03*
X423000Y185000D03*
D13*
X45280Y153490D02*
X45280Y146510D01*
X45280Y153490D02*
X52260Y153490D01*
X52260Y146510D01*
X45280Y146510D01*
X45280Y151310D02*
X52260Y151310D01*
X27740Y153490D02*
X27740Y146510D01*
X27740Y153490D02*
X34720Y153490D01*
X34720Y146510D01*
X27740Y146510D01*
X27740Y151310D02*
X34720Y151310D01*
D14*
X1260000Y83000D03*
X1232000Y83000D03*
X1232000Y44000D03*
X1260000Y44000D03*
D15*
X26000Y235000D03*
X54000Y235000D03*
X54000Y185000D03*
X26000Y185000D03*
D16*
X40000Y295000D03*
X40000Y105000D03*
D17*
X1337900Y197900D03*
D12*
X345000Y227000D03*
X345000Y185000D03*
M02*
